<mxfile host="app.diagrams.net" modified="2021-03-10T14:07:33.673Z" agent="5.0 (Windows NT 10.0; Win64; x64) AppleWebKit/537.36 (KHTML, like Gecko) Chrome/88.0.4324.190 Safari/537.36" etag="aN60Jrydms_y9LnBpjCF" version="14.4.3" type="github">
  <diagram id="b-elRLdIFDdcIzkqd4ZE" name="Page-1">
    <mxGraphModel dx="2067" dy="689" grid="1" gridSize="10" guides="1" tooltips="1" connect="1" arrows="1" fold="1" page="1" pageScale="1" pageWidth="827" pageHeight="1169" math="0" shadow="0">
      <root>
        <mxCell id="0" />
        <mxCell id="1" parent="0" />
        <mxCell id="1RZ-6bWrROYuJNEuik2E-11" value="" style="edgeStyle=orthogonalEdgeStyle;rounded=0;orthogonalLoop=1;jettySize=auto;html=1;" edge="1" parent="1" source="1RZ-6bWrROYuJNEuik2E-1">
          <mxGeometry relative="1" as="geometry">
            <mxPoint x="170" y="110" as="targetPoint" />
          </mxGeometry>
        </mxCell>
        <mxCell id="1RZ-6bWrROYuJNEuik2E-1" value="INICIO/FIM" style="rounded=1;whiteSpace=wrap;html=1;" vertex="1" parent="1">
          <mxGeometry x="110" y="20" width="120" height="60" as="geometry" />
        </mxCell>
        <mxCell id="1RZ-6bWrROYuJNEuik2E-2" value="PROCESSAMENTO&amp;nbsp;" style="rounded=0;whiteSpace=wrap;html=1;" vertex="1" parent="1">
          <mxGeometry x="600" y="200" width="120" height="60" as="geometry" />
        </mxCell>
        <mxCell id="1RZ-6bWrROYuJNEuik2E-3" value="ENTRADA" style="shape=parallelogram;perimeter=parallelogramPerimeter;whiteSpace=wrap;html=1;fixedSize=1;" vertex="1" parent="1">
          <mxGeometry x="600" y="110" width="120" height="60" as="geometry" />
        </mxCell>
        <mxCell id="1RZ-6bWrROYuJNEuik2E-5" value="DECISAO" style="rhombus;whiteSpace=wrap;html=1;" vertex="1" parent="1">
          <mxGeometry x="620" y="280" width="90" height="90" as="geometry" />
        </mxCell>
        <mxCell id="1RZ-6bWrROYuJNEuik2E-6" value="INICIO/FIM" style="rounded=1;whiteSpace=wrap;html=1;" vertex="1" parent="1">
          <mxGeometry x="107.5" y="420" width="120" height="60" as="geometry" />
        </mxCell>
        <mxCell id="1RZ-6bWrROYuJNEuik2E-12" style="edgeStyle=orthogonalEdgeStyle;rounded=0;orthogonalLoop=1;jettySize=auto;html=1;exitX=0.5;exitY=1;exitDx=0;exitDy=0;entryX=0.5;entryY=0;entryDx=0;entryDy=0;" edge="1" parent="1" source="1RZ-6bWrROYuJNEuik2E-7" target="1RZ-6bWrROYuJNEuik2E-8">
          <mxGeometry relative="1" as="geometry" />
        </mxCell>
        <mxCell id="1RZ-6bWrROYuJNEuik2E-7" value="NÚMERO" style="shape=parallelogram;perimeter=parallelogramPerimeter;whiteSpace=wrap;html=1;fixedSize=1;" vertex="1" parent="1">
          <mxGeometry x="112.5" y="110" width="120" height="60" as="geometry" />
        </mxCell>
        <mxCell id="1RZ-6bWrROYuJNEuik2E-13" style="edgeStyle=orthogonalEdgeStyle;rounded=0;orthogonalLoop=1;jettySize=auto;html=1;exitX=0.5;exitY=1;exitDx=0;exitDy=0;entryX=0.5;entryY=0;entryDx=0;entryDy=0;" edge="1" parent="1" source="1RZ-6bWrROYuJNEuik2E-8" target="1RZ-6bWrROYuJNEuik2E-10">
          <mxGeometry relative="1" as="geometry" />
        </mxCell>
        <mxCell id="1RZ-6bWrROYuJNEuik2E-8" value="DIVISÃO=NUMERO/2" style="rounded=0;whiteSpace=wrap;html=1;" vertex="1" parent="1">
          <mxGeometry x="100" y="190" width="140" height="60" as="geometry" />
        </mxCell>
        <mxCell id="1RZ-6bWrROYuJNEuik2E-15" style="edgeStyle=orthogonalEdgeStyle;rounded=0;orthogonalLoop=1;jettySize=auto;html=1;exitX=0;exitY=0.5;exitDx=0;exitDy=0;entryX=0.5;entryY=0;entryDx=0;entryDy=0;" edge="1" parent="1" source="1RZ-6bWrROYuJNEuik2E-10" target="1RZ-6bWrROYuJNEuik2E-14">
          <mxGeometry relative="1" as="geometry">
            <mxPoint x="30" y="319.66666666666663" as="targetPoint" />
          </mxGeometry>
        </mxCell>
        <mxCell id="1RZ-6bWrROYuJNEuik2E-16" value="VERDADEIRO" style="edgeLabel;html=1;align=center;verticalAlign=middle;resizable=0;points=[];" vertex="1" connectable="0" parent="1RZ-6bWrROYuJNEuik2E-15">
          <mxGeometry x="0.3659" y="-2" relative="1" as="geometry">
            <mxPoint as="offset" />
          </mxGeometry>
        </mxCell>
        <mxCell id="1RZ-6bWrROYuJNEuik2E-21" style="edgeStyle=orthogonalEdgeStyle;rounded=0;orthogonalLoop=1;jettySize=auto;html=1;entryX=0.5;entryY=0;entryDx=0;entryDy=0;" edge="1" parent="1" source="1RZ-6bWrROYuJNEuik2E-10" target="1RZ-6bWrROYuJNEuik2E-18">
          <mxGeometry relative="1" as="geometry">
            <mxPoint x="360" y="320" as="targetPoint" />
          </mxGeometry>
        </mxCell>
        <mxCell id="1RZ-6bWrROYuJNEuik2E-24" value="FALSO" style="edgeLabel;html=1;align=center;verticalAlign=middle;resizable=0;points=[];" vertex="1" connectable="0" parent="1RZ-6bWrROYuJNEuik2E-21">
          <mxGeometry x="0.6125" y="1" relative="1" as="geometry">
            <mxPoint as="offset" />
          </mxGeometry>
        </mxCell>
        <mxCell id="1RZ-6bWrROYuJNEuik2E-10" value="RESTO DA DIVISÃO É ZERO?" style="rhombus;whiteSpace=wrap;html=1;" vertex="1" parent="1">
          <mxGeometry x="105" y="270" width="125" height="100" as="geometry" />
        </mxCell>
        <mxCell id="1RZ-6bWrROYuJNEuik2E-17" style="edgeStyle=orthogonalEdgeStyle;rounded=0;orthogonalLoop=1;jettySize=auto;html=1;entryX=0;entryY=0.5;entryDx=0;entryDy=0;" edge="1" parent="1" source="1RZ-6bWrROYuJNEuik2E-14" target="1RZ-6bWrROYuJNEuik2E-6">
          <mxGeometry relative="1" as="geometry">
            <mxPoint x="30" y="460" as="targetPoint" />
          </mxGeometry>
        </mxCell>
        <mxCell id="1RZ-6bWrROYuJNEuik2E-14" value="É PAR" style="shape=document;whiteSpace=wrap;html=1;boundedLbl=1;" vertex="1" parent="1">
          <mxGeometry x="-80" y="350" width="120" height="80" as="geometry" />
        </mxCell>
        <mxCell id="1RZ-6bWrROYuJNEuik2E-23" style="edgeStyle=orthogonalEdgeStyle;rounded=0;orthogonalLoop=1;jettySize=auto;html=1;entryX=1.017;entryY=0.4;entryDx=0;entryDy=0;entryPerimeter=0;" edge="1" parent="1" source="1RZ-6bWrROYuJNEuik2E-18" target="1RZ-6bWrROYuJNEuik2E-6">
          <mxGeometry relative="1" as="geometry" />
        </mxCell>
        <mxCell id="1RZ-6bWrROYuJNEuik2E-18" value="É IMPAR" style="shape=document;whiteSpace=wrap;html=1;boundedLbl=1;" vertex="1" parent="1">
          <mxGeometry x="300" y="350" width="120" height="80" as="geometry" />
        </mxCell>
        <mxCell id="1RZ-6bWrROYuJNEuik2E-25" value="INICIO/FIM" style="rounded=1;whiteSpace=wrap;html=1;" vertex="1" parent="1">
          <mxGeometry x="605" y="20" width="120" height="60" as="geometry" />
        </mxCell>
        <mxCell id="1RZ-6bWrROYuJNEuik2E-27" value="" style="endArrow=none;html=1;" edge="1" parent="1">
          <mxGeometry width="50" height="50" relative="1" as="geometry">
            <mxPoint x="520" y="400" as="sourcePoint" />
            <mxPoint x="520" as="targetPoint" />
          </mxGeometry>
        </mxCell>
        <mxCell id="1RZ-6bWrROYuJNEuik2E-28" value="" style="endArrow=none;html=1;" edge="1" parent="1">
          <mxGeometry width="50" height="50" relative="1" as="geometry">
            <mxPoint x="-110" y="520" as="sourcePoint" />
            <mxPoint x="830" y="520" as="targetPoint" />
          </mxGeometry>
        </mxCell>
        <mxCell id="1RZ-6bWrROYuJNEuik2E-29" value="" style="endArrow=none;html=1;" edge="1" parent="1">
          <mxGeometry width="50" height="50" relative="1" as="geometry">
            <mxPoint x="830" y="520" as="sourcePoint" />
            <mxPoint x="830" as="targetPoint" />
          </mxGeometry>
        </mxCell>
        <mxCell id="1RZ-6bWrROYuJNEuik2E-30" value="" style="endArrow=none;html=1;" edge="1" parent="1">
          <mxGeometry width="50" height="50" relative="1" as="geometry">
            <mxPoint x="-110" y="520" as="sourcePoint" />
            <mxPoint x="-110" as="targetPoint" />
          </mxGeometry>
        </mxCell>
        <mxCell id="1RZ-6bWrROYuJNEuik2E-31" value="" style="endArrow=none;html=1;" edge="1" parent="1">
          <mxGeometry width="50" height="50" relative="1" as="geometry">
            <mxPoint x="-110" as="sourcePoint" />
            <mxPoint x="830" as="targetPoint" />
          </mxGeometry>
        </mxCell>
        <mxCell id="1RZ-6bWrROYuJNEuik2E-4" value="SAIDA" style="shape=document;whiteSpace=wrap;html=1;boundedLbl=1;" vertex="1" parent="1">
          <mxGeometry x="605" y="390" width="120" height="80" as="geometry" />
        </mxCell>
        <mxCell id="1RZ-6bWrROYuJNEuik2E-32" value="" style="endArrow=none;html=1;" edge="1" parent="1">
          <mxGeometry width="50" height="50" relative="1" as="geometry">
            <mxPoint x="520" y="520" as="sourcePoint" />
            <mxPoint x="520" y="400" as="targetPoint" />
          </mxGeometry>
        </mxCell>
        <mxCell id="1RZ-6bWrROYuJNEuik2E-40" style="edgeStyle=orthogonalEdgeStyle;rounded=0;orthogonalLoop=1;jettySize=auto;html=1;entryX=0.5;entryY=0;entryDx=0;entryDy=0;" edge="1" parent="1" source="1RZ-6bWrROYuJNEuik2E-33" target="1RZ-6bWrROYuJNEuik2E-34">
          <mxGeometry relative="1" as="geometry" />
        </mxCell>
        <mxCell id="1RZ-6bWrROYuJNEuik2E-33" value="INICIO" style="rounded=1;whiteSpace=wrap;html=1;" vertex="1" parent="1">
          <mxGeometry x="40" y="560" width="120" height="60" as="geometry" />
        </mxCell>
        <mxCell id="1RZ-6bWrROYuJNEuik2E-41" style="edgeStyle=orthogonalEdgeStyle;rounded=0;orthogonalLoop=1;jettySize=auto;html=1;entryX=0.5;entryY=0;entryDx=0;entryDy=0;" edge="1" parent="1" source="1RZ-6bWrROYuJNEuik2E-34" target="1RZ-6bWrROYuJNEuik2E-35">
          <mxGeometry relative="1" as="geometry" />
        </mxCell>
        <mxCell id="1RZ-6bWrROYuJNEuik2E-34" value="N1&amp;lt;N2&amp;lt;N3&amp;nbsp;" style="shape=parallelogram;perimeter=parallelogramPerimeter;whiteSpace=wrap;html=1;fixedSize=1;" vertex="1" parent="1">
          <mxGeometry x="40" y="670" width="120" height="60" as="geometry" />
        </mxCell>
        <mxCell id="1RZ-6bWrROYuJNEuik2E-42" style="edgeStyle=orthogonalEdgeStyle;rounded=0;orthogonalLoop=1;jettySize=auto;html=1;entryX=0.5;entryY=0;entryDx=0;entryDy=0;" edge="1" parent="1" source="1RZ-6bWrROYuJNEuik2E-35" target="1RZ-6bWrROYuJNEuik2E-36">
          <mxGeometry relative="1" as="geometry" />
        </mxCell>
        <mxCell id="1RZ-6bWrROYuJNEuik2E-35" value="NUMERO REAL&amp;nbsp;&lt;span style=&quot;color: rgb(32 , 33 , 36) ; font-family: &amp;#34;arial&amp;#34; , sans-serif ; font-size: 14px ; text-align: left ; background-color: rgb(255 , 255 , 255)&quot;&gt;≥&lt;/span&gt;&amp;nbsp;0" style="rounded=0;whiteSpace=wrap;html=1;" vertex="1" parent="1">
          <mxGeometry x="30" y="790" width="140" height="60" as="geometry" />
        </mxCell>
        <mxCell id="1RZ-6bWrROYuJNEuik2E-43" style="edgeStyle=orthogonalEdgeStyle;rounded=0;orthogonalLoop=1;jettySize=auto;html=1;" edge="1" parent="1" source="1RZ-6bWrROYuJNEuik2E-36" target="1RZ-6bWrROYuJNEuik2E-37">
          <mxGeometry relative="1" as="geometry" />
        </mxCell>
        <mxCell id="1RZ-6bWrROYuJNEuik2E-47" value="VERDADEIRO" style="edgeLabel;html=1;align=center;verticalAlign=middle;resizable=0;points=[];" vertex="1" connectable="0" parent="1RZ-6bWrROYuJNEuik2E-43">
          <mxGeometry x="0.5616" relative="1" as="geometry">
            <mxPoint as="offset" />
          </mxGeometry>
        </mxCell>
        <mxCell id="1RZ-6bWrROYuJNEuik2E-44" style="edgeStyle=orthogonalEdgeStyle;rounded=0;orthogonalLoop=1;jettySize=auto;html=1;entryX=0;entryY=0.5;entryDx=0;entryDy=0;" edge="1" parent="1" source="1RZ-6bWrROYuJNEuik2E-36" target="1RZ-6bWrROYuJNEuik2E-38">
          <mxGeometry relative="1" as="geometry" />
        </mxCell>
        <mxCell id="1RZ-6bWrROYuJNEuik2E-48" value="FALSO" style="edgeLabel;html=1;align=center;verticalAlign=middle;resizable=0;points=[];" vertex="1" connectable="0" parent="1RZ-6bWrROYuJNEuik2E-44">
          <mxGeometry x="0.4756" relative="1" as="geometry">
            <mxPoint x="21.43" as="offset" />
          </mxGeometry>
        </mxCell>
        <mxCell id="1RZ-6bWrROYuJNEuik2E-36" value="É NUMERO PRIMO?" style="rhombus;whiteSpace=wrap;html=1;" vertex="1" parent="1">
          <mxGeometry x="55" y="910" width="90" height="90" as="geometry" />
        </mxCell>
        <mxCell id="1RZ-6bWrROYuJNEuik2E-45" style="edgeStyle=orthogonalEdgeStyle;rounded=0;orthogonalLoop=1;jettySize=auto;html=1;entryX=0;entryY=0.25;entryDx=0;entryDy=0;" edge="1" parent="1" source="1RZ-6bWrROYuJNEuik2E-37" target="1RZ-6bWrROYuJNEuik2E-39">
          <mxGeometry relative="1" as="geometry" />
        </mxCell>
        <mxCell id="1RZ-6bWrROYuJNEuik2E-37" value="É PRIMO" style="shape=document;whiteSpace=wrap;html=1;boundedLbl=1;" vertex="1" parent="1">
          <mxGeometry x="330" y="850" width="120" height="80" as="geometry" />
        </mxCell>
        <mxCell id="1RZ-6bWrROYuJNEuik2E-46" style="edgeStyle=orthogonalEdgeStyle;rounded=0;orthogonalLoop=1;jettySize=auto;html=1;entryX=0;entryY=0.5;entryDx=0;entryDy=0;" edge="1" parent="1" source="1RZ-6bWrROYuJNEuik2E-38" target="1RZ-6bWrROYuJNEuik2E-39">
          <mxGeometry relative="1" as="geometry" />
        </mxCell>
        <mxCell id="1RZ-6bWrROYuJNEuik2E-38" value="NÃO É PRIMO" style="shape=document;whiteSpace=wrap;html=1;boundedLbl=1;" vertex="1" parent="1">
          <mxGeometry x="330" y="1000" width="120" height="80" as="geometry" />
        </mxCell>
        <mxCell id="1RZ-6bWrROYuJNEuik2E-39" value="FIM" style="rounded=1;whiteSpace=wrap;html=1;" vertex="1" parent="1">
          <mxGeometry x="600" y="925" width="120" height="60" as="geometry" />
        </mxCell>
        <mxCell id="1RZ-6bWrROYuJNEuik2E-49" value="" style="endArrow=none;html=1;" edge="1" parent="1">
          <mxGeometry width="50" height="50" relative="1" as="geometry">
            <mxPoint x="-110" y="1110" as="sourcePoint" />
            <mxPoint x="-110" y="520" as="targetPoint" />
          </mxGeometry>
        </mxCell>
        <mxCell id="1RZ-6bWrROYuJNEuik2E-50" value="" style="endArrow=none;html=1;" edge="1" parent="1">
          <mxGeometry width="50" height="50" relative="1" as="geometry">
            <mxPoint x="-110" y="1110" as="sourcePoint" />
            <mxPoint x="830" y="1110" as="targetPoint" />
          </mxGeometry>
        </mxCell>
        <mxCell id="1RZ-6bWrROYuJNEuik2E-51" value="" style="endArrow=none;html=1;" edge="1" parent="1">
          <mxGeometry width="50" height="50" relative="1" as="geometry">
            <mxPoint x="830" y="1110" as="sourcePoint" />
            <mxPoint x="830" y="520" as="targetPoint" />
          </mxGeometry>
        </mxCell>
      </root>
    </mxGraphModel>
  </diagram>
</mxfile>
